{
  "source": "C:\\Users\\Peter\\Desktop\\stuff\\MIUN\\quantitative_research\\video_compression\\videos\\UVG\\Bosphorus_1920x1080_120fps_420_8bit_YUV.y4m",
  "output": "C:\\Users\\Peter\\Desktop\\stuff\\MIUN\\quantitative_research\\video_compression\\compressed_videos\\UVG\\h264\\2.5\\Bosphorus_1920x1080_120fps_420_8bit_YUV_h264.mp4",
  "codec": "h264",
  "ok": "[yuv4mpegpipe @ 00000171f7ef5ec0] Stream #0: not enough frames to estimate rate; consider increasing probesize\nInput #0, yuv4mpegpipe, from 'C:\\Users\\Peter\\Desktop\\stuff\\MIUN\\quantitative_research\\video_compression\\videos\\UVG\\Bosphorus_1920x1080_120fps_420_8bit_YUV.y4m':\n  Duration: 00:00:05.00, start: 0.000000, bitrate: 2985989 kb/s\n  Stream #0:0: Video: rawvideo (I420 / 0x30323449), yuv420p(progressive), 1920x1080, 120 fps, 120 tbr, 120 tbn\n[out#0/mp4 @ 00000171f7ef9ac0] Codec AVOption b:a (set bitrate (in bits/s)) has not been used for any stream. The most likely reason is either wrong type (e.g. a video option with no video streams) or that it is a private option of some decoder which was not actually used for any stream.\nStream mapping:\n  Stream #0:0 -> #0:0 (rawvideo (native) -> h264 (libx264))\nPress [q] to stop, [?] for help\n[libx264 @ 00000171f7efcb80] using cpu capabilities: MMX2 SSE2Fast SSSE3 SSE4.2 AVX FMA3 BMI2 AVX2\n[libx264 @ 00000171f7efcb80] profile High, level 5.1, 4:2:0, 8-bit\n[libx264 @ 00000171f7efcb80] 264 - core 165 r3222 b35605a - H.264/MPEG-4 AVC codec - Copyleft 2003-2025 - http://www.videolan.org/x264.html - options: cabac=1 ref=5 deblock=1:0:0 analyse=0x3:0x113 me=hex subme=8 psy=1 psy_rd=1.00:0.00 mixed_ref=1 me_range=16 chroma_me=1 trellis=2 8x8dct=1 cqm=0 deadzone=21,11 fast_pskip=1 chroma_qp_offset=-2 threads=18 lookahead_threads=3 sliced_threads=0 nr=0 decimate=1 interlaced=0 bluray_compat=0 constrained_intra=0 bframes=3 b_pyramid=2 b_adapt=1 b_bias=0 direct=3 weightb=1 open_gop=0 weightp=2 keyint=250 keyint_min=25 scenecut=40 intra_refresh=0 rc_lookahead=50 rc=cbr mbtree=1 bitrate=2500 ratetol=1.0 qcomp=0.60 qpmin=0 qpmax=69 qpstep=4 vbv_maxrate=2500 vbv_bufsize=2500 nal_hrd=none filler=0 ip_ratio=1.40 aq=1:1.00\nOutput #0, mp4, to 'C:\\Users\\Peter\\Desktop\\stuff\\MIUN\\quantitative_research\\video_compression\\compressed_videos\\UVG\\h264\\2.5\\Bosphorus_1920x1080_120fps_420_8bit_YUV_h264.mp4':\n  Metadata:\n    encoder         : Lavf62.3.100\n  Stream #0:0: Video: h264 (avc1 / 0x31637661), yuv420p(tv, progressive), 1920x1080, q=2-31, 2500 kb/s, 120 fps, 15360 tbn\n    Metadata:\n      encoder         : Lavc62.11.100 libx264\n    Side data:\n      cpb: bitrate max/min/avg: 2500000/0/2500000 buffer size: 2500000 vbv_delay: N/A\nframe=    0 fps=0.0 q=0.0 size=       0KiB time=N/A bitrate=N/A speed=N/A elapsed=0:00:00.55    \nframe=    0 fps=0.0 q=0.0 size=       0KiB time=N/A bitrate=N/A speed=N/A elapsed=0:00:01.11    \nframe=    0 fps=0.0 q=0.0 size=       0KiB time=N/A bitrate=N/A speed=N/A elapsed=0:00:01.65    \nframe=   24 fps= 11 q=43.0 size=       0KiB time=00:00:00.18 bitrate=   2.1kbits/s speed=0.0834x elapsed=0:00:02.19    \nframe=   44 fps= 16 q=42.0 size=       0KiB time=00:00:00.35 bitrate=   1.1kbits/s speed=0.128x elapsed=0:00:02.72    \nframe=   74 fps= 23 q=42.0 size=       0KiB time=00:00:00.58 bitrate=   0.7kbits/s speed=0.179x elapsed=0:00:03.26    \nframe=  100 fps= 26 q=42.0 size=       0KiB time=00:00:00.78 bitrate=   0.5kbits/s speed=0.203x elapsed=0:00:03.85    \nframe=  124 fps= 28 q=42.0 size=       0KiB time=00:00:01.01 bitrate=   0.4kbits/s speed=0.231x elapsed=0:00:04.39    \nframe=  150 fps= 30 q=41.0 size=     256KiB time=00:00:01.21 bitrate=1724.0kbits/s speed=0.246x elapsed=0:00:04.95    \nframe=  168 fps= 31 q=41.0 size=     256KiB time=00:00:01.38 bitrate=1516.3kbits/s speed=0.252x elapsed=0:00:05.49    \nframe=  196 fps= 33 q=41.0 size=     256KiB time=00:00:01.60 bitrate=1304.2kbits/s speed=0.267x elapsed=0:00:06.01    \nframe=  224 fps= 34 q=41.0 size=     256KiB time=00:00:01.81 bitrate=1154.6kbits/s speed=0.277x elapsed=0:00:06.56    \nframe=  233 fps= 32 q=41.0 size=     512KiB time=00:00:01.92 bitrate=2179.1kbits/s speed=0.267x elapsed=0:00:07.20    \nframe=  262 fps= 34 q=42.0 size=     512KiB time=00:00:02.13 bitrate=1966.3kbits/s speed=0.276x elapsed=0:00:07.72    \nframe=  286 fps= 34 q=42.0 size=     512KiB time=00:00:02.36 bitrate=1772.4kbits/s speed=0.285x elapsed=0:00:08.31    \nframe=  318 fps= 36 q=42.0 size=     512KiB time=00:00:02.60 bitrate=1613.3kbits/s speed=0.292x elapsed=0:00:08.90    \nframe=  346 fps= 36 q=42.0 size=     768KiB time=00:00:02.86 bitrate=2194.8kbits/s speed=0.301x elapsed=0:00:09.53    \nframe=  372 fps= 37 q=42.0 size=     768KiB time=00:00:03.06 bitrate=2051.7kbits/s speed=0.304x elapsed=0:00:10.08    \nframe=  398 fps= 37 q=42.0 size=     768KiB time=00:00:03.26 bitrate=1926.1kbits/s speed=0.307x elapsed=0:00:10.65    \nframe=  428 fps= 38 q=42.0 size=    1024KiB time=00:00:03.53 bitrate=2374.2kbits/s speed=0.314x elapsed=0:00:11.23    \nframe=  454 fps= 38 q=42.0 size=    1024KiB time=00:00:03.75 bitrate=2237.1kbits/s speed=0.317x elapsed=0:00:11.82    \nframe=  480 fps= 39 q=42.0 size=    1024KiB time=00:00:03.96 bitrate=2114.9kbits/s speed=0.32x elapsed=0:00:12.40    \nframe=  488 fps= 38 q=42.0 size=    1024KiB time=00:00:04.01 bitrate=2088.5kbits/s speed=0.31x elapsed=0:00:12.94    \nframe=  516 fps= 38 q=42.0 size=    1280KiB time=00:00:04.26 bitrate=2457.7kbits/s speed=0.316x elapsed=0:00:13.51    \nframe=  546 fps= 39 q=42.0 size=    1280KiB time=00:00:04.52 bitrate=2317.4kbits/s speed=0.321x elapsed=0:00:14.09    \nframe=  586 fps= 40 q=-1.0 size=    1280KiB time=00:00:04.85 bitrate=2158.4kbits/s speed=0.33x elapsed=0:00:14.73    \n[mp4 @ 00000171f7ef9bc0] Starting second pass: moving the moov atom to the beginning of the file\n[out#0/mp4 @ 00000171f7ef9ac0] video:1506KiB audio:0KiB subtitle:0KiB other streams:0KiB global headers:0KiB muxing overhead: 0.522566%\nframe=  600 fps= 40 q=-1.0 Lsize=    1514KiB time=00:00:04.98 bitrate=2488.7kbits/s speed=0.334x elapsed=0:00:14.91    \n[libx264 @ 00000171f7efcb80] frame I:3     Avg QP:36.38  size: 24786\n[libx264 @ 00000171f7efcb80] frame P:151   Avg QP:37.10  size:  5146\n[libx264 @ 00000171f7efcb80] frame B:446   Avg QP:37.66  size:  1547\n[libx264 @ 00000171f7efcb80] consecutive B-frames:  0.8%  0.0%  0.5% 98.7%\n[libx264 @ 00000171f7efcb80] mb I  I16..4: 40.8% 56.8%  2.3%\n[libx264 @ 00000171f7efcb80] mb P  I16..4:  0.9%  0.3%  0.0%  P16..4: 22.4%  2.0%  2.5%  0.0%  0.0%    skip:71.9%\n[libx264 @ 00000171f7efcb80] mb B  I16..4:  0.0%  0.0%  0.0%  B16..8: 28.8%  0.0%  0.0%  direct: 0.0%  skip:71.1%  L0:30.9% L1:69.0% BI: 0.0%\n[libx264 @ 00000171f7efcb80] 8x8 transform intra:44.3% inter:93.5%\n[libx264 @ 00000171f7efcb80] direct mvs  spatial:97.8% temporal:2.2%\n[libx264 @ 00000171f7efcb80] coded y,uvDC,uvAC intra: 20.9% 18.9% 2.1% inter: 1.0% 0.6% 0.0%\n[libx264 @ 00000171f7efcb80] i16 v,h,dc,p: 13% 68%  4% 15%\n[libx264 @ 00000171f7efcb80] i8 v,h,dc,ddl,ddr,vr,hd,vl,hu:  7% 21% 15%  5% 10%  6% 15%  5% 15%\n[libx264 @ 00000171f7efcb80] i4 v,h,dc,ddl,ddr,vr,hd,vl,hu:  4% 20%  5%  7% 10%  8% 17%  7% 23%\n[libx264 @ 00000171f7efcb80] i8c dc,h,v,p: 49% 46%  4%  2%\n[libx264 @ 00000171f7efcb80] Weighted P-Frames: Y:0.0% UV:0.0%\n[libx264 @ 00000171f7efcb80] ref P L0: 54.1% 14.1% 23.4%  3.5%  4.8%\n[libx264 @ 00000171f7efcb80] ref B L0: 92.7%  5.7%  1.2%  0.4%\n[libx264 @ 00000171f7efcb80] ref B L1: 95.3%  4.7%\n[libx264 @ 00000171f7efcb80] kb/s:2466.30\n",
  "seconds": 15.25773549079895,
  "probe_out": {}
}